<svg xmlns="http://www.w3.org/2000/svg" xml:space="preserve" width="655.359" height="655.359" style="shape-rendering:geometricPrecision;text-rendering:geometricPrecision;image-rendering:optimizeQuality;fill-rule:evenodd;clip-rule:evenodd" viewBox="0 0 6.827 6.827"><defs><clipPath id="id0"><path d="M3.413 0a3.413 3.413 0 1 1 0 6.827 3.413 3.413 0 0 1 0-6.827z"/></clipPath><style>.fil10{fill:#424242}.fil1{fill:#6a1b9a}.fil14{fill:#757575}.fil3{fill:#dbc0b2}.fil6{fill:#eccebe}.fil11{fill:#fff}</style></defs><g id="Layer_x0020_1"><path d="M3.413 0a3.413 3.413 0 1 1 0 6.827 3.413 3.413 0 0 1 0-6.827z" style="fill:#ab47bc"/><g style="clip-path:url(#id0)"><g id="_435568408"><path id="_4928473521" class="fil1" d="M8.863 9.066zM5.077 5.28z"/><path id="_492847736" class="fil1" d="M6.183 7.888zM2.396 4.102z"/><path id="_492849920" class="fil1" d="M6.2 7.879zM2.414 4.092z"/><path id="_492849632" class="fil1" d="M6.218 7.869zM2.432 4.082z"/><path id="_492849776" class="fil1" d="M6.237 7.859zM2.45 4.072z"/><path id="_492850760" class="fil1" d="M6.256 7.848zM2.47 4.062z"/><path id="_492850496" class="fil1" d="M6.276 7.838zM2.489 4.052z"/><path id="_492850664" class="fil1" d="M6.811 7.581zM3.025 3.795z"/><path id="_492850712" class="fil1" d="m4.126 1.805 3.787 3.787.018.023.017.025.015.027.014.028.013.03.011.03.01.033.009.033.008.034.006.034.006.036.004.036.003.036.003.036.002.037v.037l.001.036v.037l-.002.036-.001.036-.003.035-.002.035-.004.033-.003.033-.004.032-3.786-3.786.004-.032.003-.033.003-.034.003-.034.002-.035.002-.036.001-.036V2.284l-.002-.037-.003-.036-.003-.037-.005-.036-.005-.035-.007-.035-.007-.033-.01-.033-.01-.032-.01-.031-.013-.03-.014-.028-.015-.027-.017-.025z"/><path id="_492850640" class="fil1" d="m4.362 2.635 3.786 3.787.004.004.005.006.003.005.004.006.003.006.003.007.003.007.002.007.002.008.002.008.001.008.002.008v.009l.001.008v.038l-.001.009-.002.01-.001.01-.002.01-.002.01-.003.01-.003.01-.003.01L4.38 2.85l.003-.01.003-.01.003-.01.002-.01.002-.01.001-.01.001-.01.001-.01v-.01l.001-.009V2.724l-.002-.008-.001-.009-.001-.008-.002-.007-.002-.008-.003-.007-.002-.007-.003-.007-.004-.006-.003-.006-.004-.006-.004-.005z"/><path id="_492850880" class="fil1" d="m4.38 2.85 3.786 3.786-.003.01-.004.01-.004.01-.004.009-.004.009-.005.009-.005.008-.005.009-.005.008-.005.007-.006.008-.005.007-.006.006-.006.007-.006.006-.006.005-.006.005-.006.005-.006.005-.007.004-.006.003-.006.003-.007.003-.006.002-.006.002-.007.002H8l-.006-.001-.006-.002L4.2 3.01l.006.002h.006l.006.001H4.238l.006-.002.007-.002.006-.002.006-.003L4.27 3l.006-.004.006-.004.007-.004.006-.005.006-.005.006-.006.006-.006.006-.006.005-.007.006-.007.005-.007.006-.008.005-.008.005-.008.005-.009.004-.008.005-.01.004-.009.004-.01.004-.01z"/><path id="_492850448" class="fil1" d="m4.201 3.009 3.787 3.786h-.003l-.003-.002H7.98l-.003-.002-.002-.001-.003-.002-.002-.001-.002-.002L4.18 2.999 4.184 3l.002.002.002.001.003.002h.002l.003.002.003.001z"/><path id="_492850928" class="fil1" d="m4.181 2.999 3.787 3.786-.003.011-.003.01-.003.012-.003.01-.002.01-.003.01-.003.01-.003.01-.003.009-.002.009-.003.009-.003.008-.003.008-.002.008-.003.008-.003.008-.002.007-.003.007-.002.007-.003.006-.002.006-.003.006-.002.005-.002.005-.002.005-.002.005-.002.004-.002.004-.002.003-.002.003-.002.003-.001.003-3.787-3.787.002-.002.002-.003.001-.003.002-.004.002-.003.002-.005.002-.004.003-.005.002-.005.002-.006.003-.005.002-.006.002-.007.003-.006.002-.007.003-.008.003-.007.002-.008.003-.008.003-.008.003-.009.002-.009.003-.009.003-.009.003-.01.003-.01.002-.01.003-.01.003-.01.003-.01.003-.011z"/><path id="_492851048" class="fil1" d="M4.102 3.227 7.89 7.014l-.005.006-.005.007-.006.007-.006.008-.006.008-.007.008-.008.008-.008.008-.008.01-.009.008-.01.01-.009.009-.01.01-.01.01-.01.009-.011.01-.011.01-.012.01-.011.01-.012.01-.013.01-.012.011-.013.01-.013.011-.013.01-.013.01-.013.011-.013.01-.014.01-.014.01-.014.01-.013.01L3.77 3.527l.014-.01.014-.01.014-.01.013-.01.014-.01.013-.01.013-.01.013-.011.013-.01.013-.011.012-.01.012-.01.012-.011.012-.01.011-.01.012-.01.01-.01.011-.01.01-.01.01-.01.01-.009.009-.009.009-.009.008-.009.008-.008.007-.009.007-.008.007-.007.006-.008.006-.007.005-.007z"/><path id="_492850376" class="fil1" d="m3.77 3.527 3.787 3.786v.147L3.77 3.673z"/><path id="_492850520" class="fil1" d="M3.77 3.673 7.557 7.46l.024.119-3.786-3.786z"/><path id="_492851264" class="fil1" d="m3.956 3.864 3.787 3.787v.001L3.957 3.866z"/><path id="_492851432" class="fil1" d="M4.801 4.354 8.588 8.14l.012.014.012.016.011.017.011.019.01.02.012.022.01.024.01.024.01.026.01.028.009.028.009.03.009.03.008.03.009.033.008.032.009.034.008.034.008.034.008.035.007.036.008.036.008.036.007.036.008.036.007.036.008.037.007.036.007.036.008.036.007.035L5.077 5.28l-.007-.035-.008-.036-.007-.036-.008-.036L5.04 5.1l-.008-.036-.007-.036-.008-.037-.007-.036-.008-.035-.008-.036-.008-.035-.008-.035-.008-.034-.008-.033-.008-.033-.009-.032-.009-.03-.009-.031-.009-.03-.01-.028-.009-.027-.01-.026-.01-.025-.01-.023-.01-.022-.011-.02-.011-.02-.012-.017-.011-.015z"/><path id="_492851744" class="fil1" d="m3.056 3.527 3.787 3.786-.014-.01-.014-.01-.014-.01-.013-.01-.014-.01-.013-.01-.013-.01-.013-.011-.013-.01-.013-.01-.012-.011-.012-.01-.012-.01-.012-.01-.012-.011-.01-.01-.012-.01-.01-.01-.01-.01-.01-.01L2.81 3.326l.01.01.01.009.011.01.011.01.011.01.012.01.011.01.012.01.013.01.012.011.013.01.012.01.013.011.014.01.013.01.013.011.014.01.014.01.013.01z"/><path id="_492851096" class="fil1" d="m4.399 5.28 3.786 3.786h-.057L4.342 5.28z"/><path id="_492851648" class="fil1" d="m4.342 5.28 3.786 3.786h-.461L3.88 5.28z"/><path id="_492851720" class="fil1" d="m3.88 5.28 3.787 3.786h-.098L3.783 5.28z"/><path id="_492851768" class="fil1" d="m3.783 5.28 3.786 3.786H7.4L3.614 5.28z"/><path id="_492851840" class="fil1" d="M3.614 5.28 7.4 9.066h-.01L3.604 5.28z"/><path id="_492851192" class="fil1" d="M3.603 5.28 7.39 9.066H7.2L3.413 5.28z"/><path id="_492851360" class="fil1" d="M3.413 5.28 7.2 9.066h-.19L3.222 5.28z"/><path id="_492852560" class="fil1" d="M3.223 5.28 7.01 9.066h-.011L3.21 5.28z"/><path id="_492852248" class="fil1" d="m3.211 5.28 3.787 3.786h-.105L3.107 5.28z"/><path id="_492852512" class="fil1" d="m3.107 5.28 3.786 3.786H6.73L2.945 5.28z"/><path id="_492852200" class="fil1" d="M2.945 5.28 6.73 9.066h-.46L2.485 5.28z"/><path id="_492852224" class="fil1" d="M2.485 5.28 6.27 9.066h-.057L2.428 5.28z"/><path id="_492852584" class="fil1" d="m2.428 5.28 3.786 3.786h-.678L1.75 5.28z"/><path id="_492851864" class="fil1" d="M2.645 2.997 6.43 6.783l-.003.002-.002.002-.003.002-.003.001-.003.002-.003.001-.003.001-.003.001L2.622 3.01l.003-.001.003-.001.003-.002.003-.001.003-.002.003-.001.002-.002z"/><path id="_492852080" class="fil1" d="m2.622 3.01 3.786 3.785-.006.002-.006.001h-.024l-.007-.002-.006-.002-.006-.002-.007-.003-.006-.003-.006-.003-.007-.004-.006-.005-.006-.005-.006-.005-.006-.005-3.786-3.787.006.006.006.005.006.005.006.004.006.004.007.004.006.003.006.003.007.002.006.002.006.001.007.001H2.61l.006-.001z"/><path id="_492851912" class="fil1" d="m5.077 5.28 3.786 3.786h-.678L4.4 5.28z"/><path id="_435569080" class="fil1" d="M5.077 5.28zm-2.68-1.178zm.017-.01zm.018-.01zm.019-.01zm.019-.01zm.02-.01zm.535-.257zm-.292-1.97c.188-.243.813-.417 1.218-.126.335.072.34.602.297.935.027-.02.057-.027.083-.019.063.02.085.126.049.235-.036.108-.116.18-.179.159a.072.072 0 0 1-.02-.01.964.964 0 0 1-.079.228 1.576 1.576 0 0 1-.332.3v.146l.025.12.026.011.033.015.003.001.1.044v.002l.02.009.029.013.028.014.028.013.027.012.026.013.026.012.025.013.024.012.024.011.023.012.022.011.022.011.021.011.021.011.02.01.02.011.019.01.018.01.018.01.017.01.017.01.017.008.015.01.016.008.015.01.014.008.014.008.013.008.013.008.013.008.012.008.012.007.011.007c.089.058.14.1.172.129.134.118.209.562.288.938H1.75c.079-.376.153-.82.288-.938l.004-.004.004-.004.005-.004.005-.004.005-.004.005-.005.006-.004.005-.005.006-.005.007-.005.006-.005.007-.005.007-.006.008-.005.008-.006.008-.006.008-.006.01-.006.009-.007.01-.006.009-.007.01-.007.011-.007.011-.007.012-.008.012-.007.012-.008.013-.008.013-.008.013-.008.015-.009.014-.008.015-.009.016-.009.016-.01.016-.008.017-.01.018-.01.018-.01.019-.01.019-.01.02-.01c.135-.072.31-.157.535-.257l.031-.122v-.146a1.576 1.576 0 0 1-.332-.3.97.97 0 0 1-.08-.23.072.072 0 0 1-.022.012c-.063.02-.143-.05-.179-.16-.035-.108-.013-.213.05-.234.03-.01.064.002.096.029a1.785 1.785 0 0 1-.003-.054c-.027-.27-.016-.555.147-.765z"/></g></g><path d="M3.413 0a3.413 3.413 0 1 1 0 6.827 3.413 3.413 0 0 1 0-6.827z" style="fill:none"/><path class="fil3" d="M2.493 2.615c.062-.02.142.05.178.16.036.108.014.213-.049.234-.063.02-.143-.05-.179-.16-.035-.108-.013-.213.05-.234zM4.331 2.615c-.063-.02-.143.05-.179.16-.036.108-.014.213.05.234.062.02.142-.05.178-.16.036-.108.014-.213-.049-.234z"/><path d="M3.08 3.77c-.735.323-.955.494-1.042.572-.135.119-.209.562-.288.938h3.327c-.08-.376-.154-.82-.288-.938-.087-.078-.3-.245-1.035-.567l-.673-.005z" style="fill:#fdc"/><path d="M3.08 3.77c-.735.323-.955.494-1.042.572-.135.119-.209.562-.288.938h3.327c-.08-.376-.154-.82-.288-.938-.087-.078-.3-.245-1.035-.567l-.673-.005z" style="fill:#212121"/><path class="fil6" d="M3.77 3.128v.815c-.196.24-.517.232-.714 0v-.815c0-.44.714-.44.714 0z"/><path d="M3.77 3.128v.545c-.135.099-.265.154-.357.154-.091 0-.222-.055-.357-.154v-.545c0-.44.714-.44.714 0z" style="fill:#dfc4b6"/><path class="fil6" d="M3.413 1.664c-1.198 0-.767 1.448-.689 1.563.087.128.496.464.69.464.193 0 .602-.336.688-.464.079-.115.51-1.563-.689-1.563z"/><path d="M2.866 2.149c-.07.38-.244.344-.23.79-.056-.348-.14-.81.097-1.114.188-.243.813-.417 1.218-.126.447.096.307 1.006.247 1.178-.042-.279-.135-.395-.254-.722-.16.115-.873.14-1.078-.006z" style="fill:#293439"/><path d="M3.415 4.12s-.498.119-.498.15c0 .03.19 1.01.19 1.01h.676l.078-1.007-.446-.153z" style="fill:#c7b7b7"/><path class="fil10" d="M3.056 3.781v.162l.155 1.337h-.266l-.294-.596.28-.186-.342-.16.315-.489zM3.77 3.782v.16L3.614 5.28h.266l.294-.596-.28-.186.342-.16-.28-.474z"/><path class="fil11" d="m3.056 3.673-.03.122.086.632.303-.307z"/><path d="m3.26 4.285.086.134h.134l.087-.134-.152-.165-.155.165z" style="fill:#a61e1e"/><path style="fill:#c62828" d="m3.346 4.42-.123.86h.38l-.123-.86z"/><path class="fil11" d="m3.77 3.673.025.12-.082.64-.298-.313z"/><path class="fil14" d="M2.428 5.28h.057c-.003-.253-.003-.436-.003-.436s-.025.19-.054.436zM4.399 5.28h-.057c.003-.253.003-.436.003-.436s.025.19.054.436z"/><path d="M3.05 3.18c.241.086.521.072.726 0-.067.308-.598.316-.726 0z" style="fill:#e4b7a0"/></g></svg>