<svg xmlns="http://www.w3.org/2000/svg" width="128" height="128"><path d="M27.112 77.946h18.514a16.052 16.052 0 0 1 11.559 4.914l4.758 4.94H82.8a7.1 7.1 0 0 1 7.1 7.1c0 .17-.006.339-.018.506l18.089-18.088a7.1 7.1 0 0 1 10.039 0 7.1 7.1 0 0 1 0 10.039l-27.275 27.271a10.242 10.242 0 0 1-7.242 3H27.112z" fill="#fcd0a3"/><path fill="#64d465" d="M7.913 73.881h19.199v47.813H7.913z"/><circle cx="73.6" cy="51.494" r="24.199" transform="rotate(-45 73.6 51.494)" fill="#f4dd45"/><circle cx="73.6" cy="51.494" r="16.6" transform="rotate(-45 73.6 51.494)" fill="#fcc101"/><path d="M74.961 61.493v1.816H72.38v-1.9a11.632 11.632 0 0 1-6.61-3.035l2.043-2.525a9.7 9.7 0 0 0 4.567 2.44v-5.533c-3.489-.907-5.844-2.155-5.844-5.5 0-3.063 2.355-5.418 5.844-5.843V39.68h2.581v1.759a10.55 10.55 0 0 1 5.957 2.637l-1.929 2.61a9.266 9.266 0 0 0-4.028-2.127v5.333c3.887.879 6.468 2.212 6.468 5.672 0 3.263-2.355 5.645-6.468 5.929zM72.38 49.21V44.5a2.678 2.678 0 0 0-2.27 2.439c0 1.137.739 1.733 2.27 2.271zm5.5 6.7c0-1.3-.908-1.9-2.922-2.5v5.049c1.933-.228 2.925-1.306 2.925-2.554zM73.6 21.648a1.749 1.749 0 0 1-1.75-1.75v-4.837a1.75 1.75 0 0 1 3.5 0V19.9a1.75 1.75 0 0 1-1.75 1.748zM73.6 10.237a1.749 1.749 0 0 1-1.75-1.75v-2.18a1.75 1.75 0 0 1 3.5 0v2.18a1.75 1.75 0 0 1-1.75 1.75zM61 24.6a1.751 1.751 0 0 1-1.75-1.75v-4.837a1.75 1.75 0 1 1 3.5 0v4.838A1.751 1.751 0 0 1 61 24.6zM61 13.189a1.751 1.751 0 0 1-1.75-1.75v-2.18a1.75 1.75 0 0 1 3.5 0v2.18a1.751 1.751 0 0 1-1.75 1.75zM86.2 24.6a1.75 1.75 0 0 1-1.75-1.75v-4.837a1.75 1.75 0 0 1 3.5 0v4.838A1.75 1.75 0 0 1 86.2 24.6zM86.2 13.189a1.75 1.75 0 0 1-1.75-1.75v-2.18a1.75 1.75 0 0 1 3.5 0v2.18a1.75 1.75 0 0 1-1.75 1.75z" fill="#f4dd45"/><path d="m89.88 95.4 3.18-3.17a10.8 10.8 0 0 1 .34 2.67 10.612 10.612 0 0 1-10.6 10.6H57.48a1.75 1.75 0 1 1 0-3.5H82.8a7.108 7.108 0 0 0 7.082-6.6z" fill="#feb983"/></svg>